<svg height="100%" width="100%" id="bg-svg" viewBox="0 0 1440 600" xmlns="http://www.w3.org/2000/svg" class="transition duration-300 ease-in-out delay-150"><defs><linearGradient id="gradient"><stop offset="5%" stop-color="#002bdc88"></stop><stop offset="95%" stop-color="#32ded488"></stop></linearGradient></defs><path d="M 0,600 C 0,600 0,200 0,200 C 57.289513336329264,184.29006846599168 114.57902667265853,168.5801369319834 156,166 C 197.42097332734147,163.4198630680166 222.9734066456951,173.96952073805812 268,179 C 313.0265933543049,184.03047926194188 377.5273467445611,183.54178011578418 435,210 C 492.4726532554389,236.45821988421582 542.9172063760607,289.86335879880517 590,272 C 637.0827936239393,254.13664120119483 680.8038277511962,165.00478468899522 726,129 C 771.1961722488038,92.99521531100478 817.8674826191544,110.117502445214 862,148 C 906.1325173808456,185.882497554786 947.7262417721856,244.52520553014884 999,238 C 1050.2737582278144,231.47479446985116 1111.227550292104,159.7816754341907 1164,145 C 1216.772449707896,130.2183245658093 1261.3635570593988,172.34809273308835 1306,191 C 1350.6364429406012,209.65190726691165 1395.3182214703006,204.8259536334558 1440,200 C 1440,200 1440,600 1440,600 Z" stroke="none" stroke-width="0" fill="url(#gradient)" class="transition-all duration-300 ease-in-out delay-150"></path><defs><linearGradient id="gradient"><stop offset="5%" stop-color="#002bdcff"></stop><stop offset="95%" stop-color="#32ded4ff"></stop></linearGradient></defs><path d="M 0,600 C 0,600 0,400 0,400 C 30.544450025112994,399.5535700124243 61.08890005022599,399.10714002484866 118,405 C 174.911099949774,410.89285997515134 258.18884982420894,423.12500991302966 309,443 C 359.81115017579106,462.87499008697034 378.1557006529382,490.3928203230326 425,462 C 471.8442993470618,433.6071796769674 547.1883475640382,349.30370879483996 601,338 C 654.8116524359618,326.69629120516004 687.0909090909091,388.39234449760767 728,393 C 768.9090909090909,397.60765550239233 818.4480160723255,345.1269132147294 860,353 C 901.5519839276745,360.8730867852706 935.1170266197892,429.10000264347457 989,451 C 1042.8829733802108,472.89999735652543 1117.0838774485185,448.4730762113722 1176,440 C 1234.9161225514815,431.5269237886278 1278.5474635861376,439.00769251103645 1320,435 C 1361.4525364138624,430.99230748896355 1400.7262682069313,415.4961537444818 1440,400 C 1440,400 1440,600 1440,600 Z" stroke="none" stroke-width="0" fill="url(#gradient)" class="transition-all duration-300 ease-in-out delay-150"></path></svg>