<svg width="442.47130126953124px" height="120.8099884033203px" xmlns="http://www.w3.org/2000/svg" viewBox="28.76434936523438 14.595005798339848 442.47130126953124 120.8099884033203" style="background: none;" preserveAspectRatio="xMidYMid"><defs><filter id="editing-hover" x="-100%" y="-100%" width="300%" height="300%"><feFlood flood-color="none" result="flood"></feFlood><feComposite operator="in" in2="SourceAlpha" in="flood" result="shadow"></feComposite><feOffset dx="-0.6" dy="-0.6" in="SourceGraphic" result="offset-1"></feOffset><feOffset dx="0.6" dy="0.6" in="shadow" result="offset-2"></feOffset><feMerge><feMergeNode in="offset-2"></feMergeNode><feMergeNode in="offset-1"></feMergeNode></feMerge></filter></defs><g filter="url(#editing-hover)"><g transform="translate(94.57029783725739, 98.68000030517578)"><path d="M34.50-13.25L34.50-13.25L34.50-13.25Q36.16-12.03 36.16-9.44L36.16-9.44L36.16-9.44Q36.16-6.85 35.04-5.02L35.04-5.02L35.04-5.02Q33.92-3.20 31.74-1.79L31.74-1.79L31.74-1.79Q27.07 1.22 18.91 1.22L18.91 1.22L18.91 1.22Q10.75 1.22 6.30-3.04L6.30-3.04L6.30-3.04Q1.86-7.30 1.86-14.85L1.86-14.85L1.86-14.85Q1.86-25.54 7.42-33.66L7.42-33.66L7.42-33.66Q11.65-39.68 19.20-42.24L19.20-42.24L19.20-42.24Q23.10-43.52 26.94-43.52L26.94-43.52L26.94-43.52Q30.78-43.52 33.15-43.01L33.15-43.01L33.15-43.01Q35.52-42.50 37.31-41.47L37.31-41.47L37.31-41.47Q41.22-39.23 41.22-35.65L41.22-35.65L41.22-35.65Q41.22-32.38 38.14-29.95L38.14-29.95L38.14-29.95Q35.33-27.78 33.02-27.78L33.02-27.78L33.02-27.78Q30.72-27.78 29.76-28.10L29.76-28.10L29.76-28.10Q30.02-30.40 30.02-31.90L30.02-31.90L30.02-31.90Q30.02-33.41 29.95-34.50L29.95-34.50L29.95-34.50Q29.89-35.58 29.57-36.61L29.57-36.61L29.57-36.61Q28.93-38.98 26.98-38.98L26.98-38.98L26.98-38.98Q25.02-38.98 23.07-37.15L23.07-37.15L23.07-37.15Q21.12-35.33 19.46-32.26L19.46-32.26L19.46-32.26Q15.68-25.28 15.68-17.02L15.68-17.02L15.68-17.02Q15.68-13.06 17.92-10.78L17.92-10.78L17.92-10.78Q20.16-8.51 24.96-8.51L24.96-8.51L24.96-8.51Q28.54-8.51 31.94-10.88L31.94-10.88L31.94-10.88Q33.41-11.90 34.50-13.25ZM55.42 1.28L55.42 1.28L55.42 1.28Q41.34 1.28 41.34-11.97L41.34-11.97L41.34-11.97Q41.34-21.38 46.53-27.46L46.53-27.46L46.53-27.46Q52.03-33.92 61.57-33.92L61.57-33.92L61.57-33.92Q68.48-33.92 72-30.72L72-30.72L72-30.72Q75.52-27.52 75.52-20.80L75.52-20.80L75.52-20.80Q75.52-10.56 70.02-4.61L70.02-4.61L70.02-4.61Q64.64 1.28 55.42 1.28ZM57.09-26.56L57.09-26.56L57.09-26.56Q56.32-24.83 55.71-22.24L55.71-22.24L55.71-22.24Q55.10-19.65 54.34-15.55L54.34-15.55L54.34-15.55Q53.57-11.46 53.57-6.40L53.57-6.40L53.57-6.40Q53.57-4.74 54.11-3.65L54.11-3.65L54.11-3.65Q54.66-2.56 56.13-2.56L56.13-2.56L56.13-2.56Q57.60-2.56 58.53-3.26L58.53-3.26L58.53-3.26Q59.46-3.97 60.16-5.63L60.16-5.63L60.16-5.63Q61.44-8.58 62.46-14.05L62.46-14.05L62.46-14.05Q63.49-19.52 63.58-21.89L63.58-21.89L63.58-21.89Q63.68-24.26 63.68-26.02L63.68-26.02L63.68-26.02Q63.68-27.78 63.17-28.93L63.17-28.93L63.17-28.93Q62.66-30.08 61.22-30.08L61.22-30.08L61.22-30.08Q59.78-30.08 58.82-29.18L58.82-29.18L58.82-29.18Q57.86-28.29 57.09-26.56ZM104.26-37.12L104.26-37.12L104.26-37.12Q105.15-38.66 105.15-40.32L105.15-40.32L105.15-40.32Q105.15-43.26 103.36-43.26L103.36-43.26L103.36-43.26Q100.61-43.26 99.46-37.63L99.46-37.63L98.50-32.64L104.32-32.64L103.94-29.76L97.92-29.76L92.16 0L79.23 1.28L85.38-29.76L80.83-29.76L81.41-32.64L85.89-32.64L87.23-37.70L87.23-37.70Q88.38-42.37 93.31-44.54L93.31-44.54L93.31-44.54Q96.90-46.08 102.91-46.08L102.91-46.08L102.91-46.08Q108.93-46.08 111.62-44.54L111.62-44.54L111.62-44.54Q114.30-43.01 114.30-40.96L114.30-40.96L114.30-40.96Q114.30-38.91 112.70-37.63L112.70-37.63L112.70-37.63Q111.10-36.35 109.31-36.35L109.31-36.35L109.31-36.35Q105.79-36.35 104.26-37.12ZM128.70-37.12L128.70-37.12L128.70-37.12Q129.60-38.66 129.60-40.32L129.60-40.32L129.60-40.32Q129.60-43.26 127.81-43.26L127.81-43.26L127.81-43.26Q125.06-43.26 123.90-37.63L123.90-37.63L122.94-32.64L128.77-32.64L128.38-29.76L122.37-29.76L116.61 0L103.68 1.28L109.82-29.76L105.28-29.76L105.86-32.64L110.34-32.64L111.68-37.70L111.68-37.70Q112.83-42.37 117.76-44.54L117.76-44.54L117.76-44.54Q121.34-46.08 127.36-46.08L127.36-46.08L127.36-46.08Q133.38-46.08 136.06-44.54L136.06-44.54L136.06-44.54Q138.75-43.01 138.75-40.96L138.75-40.96L138.75-40.96Q138.75-38.91 137.15-37.63L137.15-37.63L137.15-37.63Q135.55-36.35 133.76-36.35L133.76-36.35L133.76-36.35Q130.24-36.35 128.70-37.12ZM153.60-10.82L153.60-10.82L153.60-10.82Q155.20-9.73 155.20-7.33L155.20-7.33L155.20-7.33Q155.20-4.93 153.98-3.39L153.98-3.39L153.98-3.39Q152.77-1.86 150.78-0.83L150.78-0.83L150.78-0.83Q146.69 1.28 142.27 1.28L142.27 1.28L142.27 1.28Q137.86 1.28 135.26 0.32L135.26 0.32L135.26 0.32Q132.67-0.64 130.94-2.43L130.94-2.43L130.94-2.43Q127.55-5.82 127.55-12.03L127.55-12.03L127.55-12.03Q127.55-21.70 132.80-27.58L132.80-27.58L132.80-27.58Q138.43-33.92 148.22-33.92L148.22-33.92L148.22-33.92Q154.30-33.92 157.31-31.36L157.31-31.36L157.31-31.36Q159.55-29.44 159.55-26.30L159.55-26.30L159.55-26.30Q159.55-15.04 140.10-15.04L140.10-15.04L140.10-15.04Q139.84-13.38 139.84-11.97L139.84-11.97L139.84-11.97Q139.84-9.02 141.15-7.90L141.15-7.90L141.15-7.90Q142.46-6.78 144.90-6.78L144.90-6.78L144.90-6.78Q147.33-6.78 149.92-7.90L149.92-7.90L149.92-7.90Q152.51-9.02 153.60-10.82ZM140.54-17.79L140.54-17.79L140.54-17.79Q145.09-17.79 147.71-20.61L147.71-20.61L147.71-20.61Q150.34-23.30 150.34-27.58L150.34-27.58L150.34-27.58Q150.34-29.06 149.79-29.86L149.79-29.86L149.79-29.86Q149.25-30.66 148.16-30.66L148.16-30.66L148.16-30.66Q147.07-30.66 146.14-30.24L146.14-30.24L146.14-30.24Q145.22-29.82 144.26-28.42L144.26-28.42L144.26-28.42Q141.89-25.22 140.54-17.79ZM187.65-10.82L187.65-10.82L187.65-10.82Q189.25-9.73 189.25-7.33L189.25-7.33L189.25-7.33Q189.25-4.93 188.03-3.39L188.03-3.39L188.03-3.39Q186.82-1.86 184.83-0.83L184.83-0.83L184.83-0.83Q180.74 1.28 176.32 1.28L176.32 1.28L176.32 1.28Q171.90 1.28 169.31 0.32L169.31 0.32L169.31 0.32Q166.72-0.64 164.99-2.43L164.99-2.43L164.99-2.43Q161.60-5.82 161.60-12.03L161.60-12.03L161.60-12.03Q161.60-21.70 166.85-27.58L166.85-27.58L166.85-27.58Q172.48-33.92 182.27-33.92L182.27-33.92L182.27-33.92Q188.35-33.92 191.36-31.36L191.36-31.36L191.36-31.36Q193.60-29.44 193.60-26.30L193.60-26.30L193.60-26.30Q193.60-15.04 174.14-15.04L174.14-15.04L174.14-15.04Q173.89-13.38 173.89-11.97L173.89-11.97L173.89-11.97Q173.89-9.02 175.20-7.90L175.20-7.90L175.20-7.90Q176.51-6.78 178.94-6.78L178.94-6.78L178.94-6.78Q181.38-6.78 183.97-7.90L183.97-7.90L183.97-7.90Q186.56-9.02 187.65-10.82ZM174.59-17.79L174.59-17.79L174.59-17.79Q179.14-17.79 181.76-20.61L181.76-20.61L181.76-20.61Q184.38-23.30 184.38-27.58L184.38-27.58L184.38-27.58Q184.38-29.06 183.84-29.86L183.84-29.86L183.84-29.86Q183.30-30.66 182.21-30.66L182.21-30.66L182.21-30.66Q181.12-30.66 180.19-30.24L180.19-30.24L180.19-30.24Q179.26-29.82 178.30-28.42L178.30-28.42L178.30-28.42Q175.94-25.22 174.59-17.79ZM233.98-42.69L233.98-42.69L233.98-42.69Q249.66-42.69 249.66-31.62L249.66-31.62L249.66-31.62Q249.66-25.54 245.76-21.89L245.76-21.89L245.76-21.89Q241.92-18.24 235.20-18.24L235.20-18.24L235.20-18.24Q232.06-18.24 229.63-20.03L229.63-20.03L229.63-20.03Q228.48-20.80 227.71-21.82L227.71-21.82L227.71-21.82Q232.38-21.82 234.85-24.67L234.85-24.67L234.85-24.67Q237.31-27.52 237.31-33.09L237.31-33.09L237.31-33.09Q237.31-38.66 231.81-38.66L231.81-38.66L230.27-38.66L230.27-38.66Q229.89-38.66 229.57-38.59L229.57-38.59L222.21 0L208.32 0L216.19-41.92L216.19-41.92Q223.04-42.56 227.01-42.62L227.01-42.62L227.01-42.62Q230.98-42.69 233.98-42.69ZM252.77-1.92L252.77-1.92L252.77-1.92Q251.26-3.58 250.59-6.21L250.59-6.21L250.59-6.21Q249.92-8.83 249.92-13.12L249.92-13.12L249.92-13.12Q249.92-17.41 251.39-21.31L251.39-21.31L251.39-21.31Q252.86-25.22 255.55-28.03L255.55-28.03L255.55-28.03Q261.06-33.92 270.14-33.92L270.14-33.92L270.14-33.92Q273.41-33.92 275.78-32.83L275.78-32.83L286.72-33.92L281.98-8.96L281.98-8.96Q281.79-8.19 281.79-6.78L281.79-6.78L281.79-6.78Q281.79-5.38 282.66-4.48L282.66-4.48L282.66-4.48Q283.52-3.58 284.80-3.46L284.80-3.46L284.80-3.46Q284.16-1.28 281.82 0L281.82 0L281.82 0Q279.49 1.28 276.86 1.28L276.86 1.28L276.86 1.28Q274.24 1.28 272.48 0.29L272.48 0.29L272.48 0.29Q270.72-0.70 270.21-2.37L270.21-2.37L270.21-2.37Q269.18-0.77 267.01 0.26L267.01 0.26L267.01 0.26Q264.83 1.28 261.92 1.28L261.92 1.28L261.92 1.28Q259.01 1.28 256.64 0.51L256.64 0.51L256.64 0.51Q254.27-0.26 252.77-1.92ZM266.27-27.90L266.27-27.90L266.27-27.90Q265.54-26.75 264.90-24.80L264.90-24.80L264.90-24.80Q264.26-22.85 263.20-17.63L263.20-17.63L263.20-17.63Q262.14-12.42 262.14-8.70L262.14-8.70L262.14-8.70Q262.14-4.99 262.72-3.90L262.72-3.90L262.72-3.90Q263.30-2.82 264.32-2.82L264.32-2.82L264.32-2.82Q266.37-2.82 267.87-4.77L267.87-4.77L267.87-4.77Q269.38-6.72 269.95-10.18L269.95-10.18L273.34-28.93L273.34-28.93Q272-30.08 270.43-30.08L270.43-30.08L270.43-30.08Q268.86-30.08 267.94-29.57L267.94-29.57L267.94-29.57Q267.01-29.06 266.27-27.90ZM305.47-3.52L305.47-3.52L305.47-3.52Q303.49 1.28 297.15 1.28L297.15 1.28L297.15 1.28Q293.95 1.28 291.90-0.96L291.90-0.96L291.90-0.96Q290.24-2.82 290.24-4.93L290.24-4.93L290.24-4.93Q290.24-9.73 292.48-20.22L292.48-20.22L297.15-44.80L310.14-46.08L303.94-13.70L303.94-13.70Q302.85-8.96 302.85-7.30L302.85-7.30L302.85-7.30Q302.85-3.65 305.47-3.52Z" fill="#fdfdfd"></path></g></g><style>text {
  font-size: 64px;
  font-family: Arial Black;
  dominant-baseline: central;
  text-anchor: middle;
}</style></svg>